<?xml version="1.0" standalone="no"?>
<!DOCTYPE svg PUBLIC "-//W3C//DTD SVG 20010904//EN"
 "http://www.w3.org/TR/2001/REC-SVG-20010904/DTD/svg10.dtd">
<svg version="1.0" xmlns="http://www.w3.org/2000/svg"
 width="616.000000pt" height="121.000000pt" viewBox="0 0 616.000000 121.000000"
 preserveAspectRatio="xMidYMid meet">

<g transform="translate(0.000000,121.000000) scale(0.100000,-0.100000)"
fill="#000000" stroke="none">
<path d="M5634 1101 c-68 -29 -87 -130 -35 -182 24 -24 38 -29 76 -29 38 0 52
5 76 29 61 61 24 175 -61 186 -19 3 -45 1 -56 -4z"/>
<path d="M5896 1095 c-43 -23 -55 -45 -56 -98 0 -63 39 -107 95 -107 71 0 114
41 115 107 0 82 -85 136 -154 98z"/>
<path d="M562 1030 l4 -70 -198 0 -198 0 0 -105 0 -105 209 0 208 0 7 -52 c3
-29 6 -68 6 -85 l0 -33 -215 0 -215 0 0 -100 0 -100 228 -2 227 -3 9 -102 8
-103 105 0 105 0 -6 27 c-2 16 -8 63 -11 106 l-7 77 196 0 196 0 0 100 0 100
-200 0 c-231 0 -214 -8 -222 108 l-4 62 213 0 213 0 0 105 0 105 -224 0 -224
0 -7 70 -7 70 -100 0 -100 0 4 -70z"/>
<path d="M5120 630 l0 -460 105 0 105 0 0 195 c0 107 2 195 4 195 3 0 593 -72
679 -83 l27 -4 0 102 0 101 -355 44 -355 43 0 164 0 163 -105 0 -105 0 0 -460z"/>
<path d="M2693 1064 c-58 -29 -63 -55 -63 -318 l0 -236 100 0 100 0 0 165 c0
152 2 167 20 185 20 20 31 20 303 18 280 -3 282 -3 285 -24 2 -17 -83 -325
-184 -666 -5 -16 5 -18 105 -18 96 0 110 2 115 18 74 247 226 798 226 817 0
14 -11 37 -25 50 l-24 25 -463 0 c-400 0 -467 -3 -495 -16z"/>
<path d="M1450 630 l0 -100 475 0 475 0 0 100 0 100 -475 0 -475 0 0 -100z"/>
<path d="M3920 630 l0 -100 475 0 475 0 0 100 0 100 -475 0 -475 0 0 -100z"/>
</g>
</svg>
